<svg xmlns="http://www.w3.org/2000/svg" viewBox="0 0 1000 1000">
  <!-- Soft neutral background -->
  <rect width="1000" height="1000" fill="#F5F5F5"/>
  
  <!-- Flower Mosaic Pattern -->
  <defs>
    <pattern id="flowerMosaic" width="200" height="200" patternUnits="userSpaceOnUse">
      <g>
        <!-- Background tile -->
        <rect width="200" height="200" fill="#F5F5F5"/>
        
        <!-- Simplified Flower Design -->
        <g transform="translate(100,100)">
          <!-- Stylized Petals -->
          <path d="M0,-70 Q40,-35 0,0 Q-40,35 0,70 Q40,35 0,0 Q-40,-35 0,-70" 
                fill="#E0E0E0" opacity="0.7"/>
          <path d="M0,-70 Q40,-35 0,0 Q-40,35 0,70 Q40,35 0,0 Q-40,-35 0,-70" 
                fill="#E0E0E0" opacity="0.7" transform="rotate(45)"/>
          <path d="M0,-70 Q40,-35 0,0 Q-40,35 0,70 Q40,35 0,0 Q-40,-35 0,-70" 
                fill="#E0E0E0" opacity="0.7" transform="rotate(90)"/>
          <path d="M0,-70 Q40,-35 0,0 Q-40,35 0,70 Q40,35 0,0 Q-40,-35 0,-70" 
                fill="#E0E0E0" opacity="0.7" transform="rotate(135)"/>
          
          <!-- Flower Center -->
          <circle cx="0" cy="0" r="15" fill="#D0D0D0"/>
        </g>
      </g>
    </pattern>
  </defs>
  
  <!-- Apply Mosaic Pattern -->
  <rect width="1000" height="1000" fill="url(#flowerMosaic)"/>
</svg>
